<svg xmlns="http://www.w3.org/2000/svg" width="1357.333" height="1354.667" viewBox="0 0 1018 1016"
     preserveAspectRatio="xMidYMid meet" style="background: white"><path d="M8.5 6.2c-.3.7-.4 55.3-.3 121.3l.3 120h242V5.5l-120.8-.3C33.6 5 8.8 5.2 8.5 6.2zM216 126.5V213H43V40h173v86.5zm-138 0V178h103V75H78v51.5zm242-104V40h-35v69h35v35h-35v138h-69v35h-35v34h-34v-69h-35v35H78v69H43v-69l17.3-.2 17.2-.3v-34l-34.8-.3L8 282l.2 69.2.3 69.3 17.2.3 17.3.2v34H8v69h35v35h35l-.2-17.2-.3-17.3-17.3-.3L43 524v-34h35v34h34v35h35v69h34v35h-69v-35H43l-.2-17.2-.3-17.3h-34l-.3 17.2L8 628h35v35H8v34h35v35h69v-35h35v35h34v-35h35v35h69v69h35v69h-35v35h35v-35h34v69l-34.2.2-34.3.3-.3 34.7-.2 34.8h69v-70h35v35h35v35l34.3-.2 34.2-.3.3-17.3.2-17.2h-69V836h69v34h-35v69h69v-34h-34v-35h34v-34h35v34h69v-34l-17.2-.2-17.3-.3-.3-17.2-.2-17.3h-69V697H424v-34h-35v34h-69v35h-35v-35h-69v-34l17.3-.2 17.2-.3.3-17.2.2-17.3h34v35l17.3-.2 17.2-.3.3-17.2.2-17.3h-35v-35h69v35h35v-35h35v-34h69v34h69v104h69v35h-35v34h104v104h69l.2 17.3.3 17.2 34.8.3 34.7.2v69h-35v35h69V905h35v34h34v-34h35v34l-17.2.2-17.3.3v69l17.3.3 17.2.2v-70h35v-34h-35v-35l-17.2.2-17.3.3-.3 17.2-.2 17.3h-34v-69l51.8-.2 51.7-.3.3-17.3.2-17.2h-35v-35h35l-.2-34.3-.3-34.2-17.2-.3-17.3-.2v-34l17.3-.2 17.2-.3v-69l-51.7-.2-51.8-.3v35h33.9l.3 17.7c.2 9.8.2 25.3 0 34.6L942 697h-34v-34h-35v-35h-34v-69h34v-35h35v-34h34v-35h-34v-34h34v-35h35v-35h35v-34h-35v-35h-69v35h-35v-35l-51.7.2-51.8.3-.2 34.2-.3 34.3h35v-34h69v34h-34v70h-35v-35h-35v35h-34v34h69v69h-69v-34h-35v-35h-34v35h34v34h35v35h69v34l-17.2.2-17.3.3-.3 17.2-.2 17.3h-34l-.2-17.3-.3-17.2h-34l-.3 17.3-.2 17.2h35v35h138v34H700v35h-34l-.2-17.2-.3-17.3-17.2-.3-17.3-.2v-34l-17.2-.2-17.3-.3v-69l17.3-.3 17.2-.2V490h-69v34h34v35h-69v-35h-34v-34h-35v-35h35v-34h34v-35h-69v35h-34v34H320v-34H216v34h35l-.2 17.2-.3 17.3-17.2.3-17.3.2v34l17.3.2 17.2.3.3 17.3.2 17.2h-70v-35h-69v-69h35v35h34v-69h-34v-35h34l.2 17.2.3 17.3h34l.3-17.3.2-17.2h173v-35h35v-34h-35v-35h-35v-34h-34v-35h34l.2 17.2.3 17.3h34l.3-17.2.2-17.3 17.3-.2 17.2-.3v-34l-17.2-.3-17.3-.2v35h-35v-35h-34v-34l51.8-.2 51.7-.3.3-17.3.2-17.2h34V75h104v69h-35v69h-34v35h34v34h-69v-69h-34v69h34v35h104v104h34v34h35v-34h-35v-35h35v-69l-17.2-.2-17.3-.3-.3-17.3-.2-17.2h35v-34l17.3-.2 17.2-.3.3-17.3.2-17.2h34v35h-34v34h34v69h-34v35h34v-35h35V213h-35v-35h-34v35h-35v-35l-17.2.2-17.3.3v34l17.3.3 17.2.2v35h-35v-35h-34v-69h34v-35h35v35h69V75H562V5l-17.2.2-17.3.3-.3 17.2L527 40h-69V5h-34v35h-35v35h-69V40h34V5h-34v17.5zm242 208V248h34v34h-34v-34h-35v-35h35v17.5zm-208 86V351h-34v-34h-35v-35h69v34.5zM251 334v17h-35v35h-35v-35h35v-34h35v17zm726 0v17h-69v35h-35v-35h35v-34h69v17zm-830 34.5V386h-35v-35h35v17.5zM873 438v17h35v35h-69v-69h34v17zm-553 34.5V490h34v69h-34v-35h-35v-69h35v17.5zm104 52V559h-35v-69h35v34.5zm-173.2 86.2l.2 17.3h-35v-35l17.3.2 17.2.3.3 17.2zM977 714.5V732h-35v34h-34v35h-35v-35h35v-34h34v-35h35v17.5zm-588 52V801h-69v-69h69v34.5zM839 784v52H735V732h104v52zm-346.2-.3l.2 17.3h34v35h-34v-35h-35v-35l17.3.2 17.2.3.3 17.2zm276.9-17c-.4.3-.7 8.2-.7 17.5V801h35v-35h-16.8c-9.3 0-17.2.3-17.5.7zM666 22.5V40h34l.2 17.2.3 17.3h34l.3-34.8L735 5h-69v17.5zM769.5 6.2c-.3.7-.4 55.3-.2 121.3l.2 120h242V5.5l-120.8-.3c-96.1-.2-120.9 0-121.2 1zM977 126.5V213H804V40h173v86.5zm-138 0V178h103V75H839v51.5zM458 161v17h35v-34h-35v17z"/><path d="M977 438v17h35v-34h-35v17zm0 86.5V559h35v-69h-35v34.5zM666 576v17h34v-34h-34v17zm-207.3 17.6c-.4.4-.7 8.3-.7 17.6V628h35v35h34v-35h-34l-.2-17.3-.3-17.2-16.6-.3c-9.1-.1-16.8.1-17.2.4zm173 0c-.4.4-.7 8.3-.7 17.6V628h35l-.2-17.3-.3-17.2-16.6-.3c-9.1-.1-16.8.1-17.2.4zM8.5 767.3c-.3.6-.4 55.2-.3 121.2l.3 120h242v-242l-120.8-.2c-95.2-.2-120.9 0-121.2 1zM216 887.5V974H43V801h173v86.5zm-138 0V939h103V836H78v51.5zM562 922v17l-17.2.2-17.3.3v69l17.3.3 17.2.2v-70h34v-34h-34v17zm69 0v17l-17.2.2-17.3.3v69l17.3.3 17.2.2v-35h69l.2 17.2.3 17.3 34.3.3 34.2.2v-35h-34v-35h34v-34h-34v34h-35v-34h-69v17z"/></svg>